<svg version="1.1" id="Layer_1" xmlns="http://www.w3.org/2000/svg" x="0" y="0" viewBox="0 0 391.7 114.5" xml:space="preserve"><path fill="#D72027" d="m245.5 34.6-6.3-10.7-11.2 5.3-6.3-10.7-11.2 5.3-6.3-10.7-11.2 5.4-6.3-10.7-11.2 5.3-6.3-10.7L158 7.8l-23.8 77.4 28.9 8.8c1.9-6.2 7.7-10.8 14.6-10.8 8.4 0 15.3 6.8 15.3 15.3v.3c.1 1.4-.1 2.8-.5 4.2l29.4 9 23.6-77.4z"/><path fill="#FFF" d="M158.9 78.8c-1.5-.3-2.6-1.5-2.6-3.1V37.8c0-1.8 1.4-3.2 3.1-3.2h27.4c.7 0 1.4.1 2.1.2 5.9 1 10.2 6.1 10.2 12.1v28.7c0 .9-.3 1.7-.9 2.2-.6.6-1.4.9-2.2.9-.2 0-.4 0-.6-.1-1.5-.3-2.6-1.5-2.6-3.1V46.9c0-2.9-2.1-5.4-4.9-5.9-.3-.1-.7-.1-1-.1h-6v34.7c0 .9-.3 1.7-.9 2.2-.6.6-1.4.9-2.2.9h-.6c-1.5-.3-2.6-1.5-2.6-3.1V41h-11.9v34.7c0 .9-.3 1.6-.9 2.2-.6.6-1.4.9-2.2.9h-.7M204.4 95.3c-1.5-.3-2.6-1.5-2.6-3.1 0-.9.3-1.7.9-2.2.6-.6 1.4-.9 2.2-.9 2.7 0 5-1.7 5.7-4.3l3.2-10.8-10.6-35.5c-.5-1.7.4-3.5 2.1-4 .5-.1.9-.1 1.4-.1 1.2.2 2.1 1 2.5 2.1l7.9 26.5 8-26.5c.4-1.5 2-2.4 3.6-2.2l.2.1c1.7.5 2.6 2.3 2.1 4l-10.9 36.5-3.5 11.7c-.9 2.7-2.4 4.9-4.4 6.3-2.2 1.6-4.7 2.5-7.4 2.5 0-.1-.2-.1-.4-.1M7.7 78.4C6.1 78.1 5 76.8 5 75.2V18.6c0-.9.3-1.7.9-2.3.6-.6 1.4-.9 2.3-.9h.6c1.6.3 2.7 1.6 2.7 3.2v16.1h6.2c.7 0 1.5.1 2.2.2C26 36 30.5 41.3 30.5 47.5v18.2c0 7-5.7 12.8-12.8 12.8H8.4c-.3-.1-.5-.1-.7-.1m3.9-6.5h6.2c3.4 0 6.2-2.8 6.2-6.2V47.5c0-3-2.2-5.6-5.1-6.1-.3-.1-.7-.1-1.1-.1h-6.2v30.6zM49.5 78.6c-6.1-1-10.5-6.3-10.5-12.5v-19c0-3.4 1.3-6.6 3.7-9 2.4-2.4 5.6-3.7 9-3.7.7 0 1.5.1 2.2.2C60 35.7 64.5 41 64.5 47.2v19c0 3.4-1.3 6.6-3.8 9-2.4 2.4-5.6 3.7-9 3.7-.7-.1-1.5-.1-2.2-.3M52.8 41c-.3-.1-.7-.1-1.1-.1-3.5 0-6.2 2.7-6.2 6.2v19c0 3 2.1 5.6 5.1 6.1.4.1.7.1 1.1.1 3.4 0 6.2-2.8 6.2-6.2v-19c.1-3-2.1-5.6-5.1-6.1M83.4 78.6c-6.1-1.1-10.5-6.4-10.5-12.6V47c0-7 5.7-12.8 12.8-12.8.7 0 1.5.1 2.2.2C94 35.5 98.5 40.8 98.5 47v19c0 3.4-1.3 6.6-3.8 9-2.4 2.4-5.6 3.7-9 3.7-.8.1-1.5.1-2.3-.1M86.7 41c-.3-.1-.7-.1-1.1-.1-3.5 0-6.2 2.7-6.2 6.2v19c0 3 2.1 5.6 5.1 6.1.4.1.7.1 1.1.1 1.6 0 3.2-.6 4.4-1.8 1.2-1.2 1.8-2.7 1.8-4.4v-19c.1-3-2.1-5.6-5.1-6.1M109.5 78.8c-1.6-.3-2.7-1.6-2.7-3.2v-57c0-.9.3-1.7.9-2.3.6-.6 1.4-.9 2.3-.9h.6c1.6.3 2.7 1.6 2.7 3.2v33.7l15.1-16.9c.8-.8 1.9-1.2 3-1 .6.1 1.2.4 1.6.8 1.3 1.2 1.4 3.3.2 4.6L122 52.5 133.8 74c.4.7.5 1.6.3 2.4-.2.8-.8 1.5-1.6 1.9-.6.4-1.4.5-2.2.4-1-.2-1.8-.7-2.3-1.6l-10.6-19.5-4 4.5v13.4c0 .9-.4 1.7-1 2.3-.6.6-1.4.9-2.3.9-.2.1-.4.1-.6.1M254.1 78.7c-3.6-.6-6.7-2.8-8.5-6-.4-.7-.5-1.7-.3-2.5.2-.9.8-1.6 1.5-2 .7-.4 1.4-.5 2.2-.4 1 .2 1.8.7 2.3 1.6.9 1.5 2.2 2.4 3.9 2.7 1.8.3 3.5-.2 4.8-1.4 1.3-1.2 1.9-2.8 1.8-4.5-.1-1.7-.9-3.2-2.4-4.2l-8.8-6.3c-2.9-2-4.7-5.2-5-8.9-.2-3.7 1.2-7.1 3.8-9.5 2.6-2.4 6.2-3.5 9.7-3.1 3.7.7 6.8 2.8 8.5 5.8.4.7.5 1.6.3 2.5-.2.9-.8 1.6-1.5 2-.7.4-1.4.5-2.2.4-1-.2-1.8-.7-2.3-1.6-.7-1.3-2.1-2.2-3.7-2.5-1.7-.3-3.2.2-4.4 1.3-1.1 1-1.8 2.6-1.7 4.2.1 1.5 1 3.1 2.3 3.9l8.8 6.2c3.1 2.2 4.9 5.5 5.1 9.2.3 3.7-1.1 7.2-3.9 9.7-2.7 2.5-6.3 3.6-10 3.1l-.3.3zM279.4 78.8c-1.6-.3-2.7-1.6-2.7-3.2V18.7c0-.9.4-1.7 1-2.3.6-.6 1.4-.9 2.3-.9.2 0 .4 0 .6.1 1.6.3 2.7 1.6 2.7 3.2v16.1h6.2c.8 0 1.5.1 2.2.2 6.1 1.1 10.5 6.4 10.5 12.6v28.1c0 1.8-1.4 3.3-3.3 3.3h-.6c-1.6-.3-2.7-1.6-2.7-3.2V47.5c0-3-2.1-5.6-5.1-6.1-.4-.1-.7-.1-1.1-.1h-6.2v34.3c0 1.8-1.4 3.3-3.3 3.3-.1 0-.3 0-.5-.1M321.1 78.7c-6.1-1.1-10.5-6.4-10.5-12.6v-19c0-7 5.7-12.8 12.8-12.8.7 0 1.5.1 2.2.2 6.1 1.1 10.6 6.4 10.6 12.6v19c0 3.4-1.3 6.6-3.8 9-2.4 2.4-5.6 3.7-9 3.7-.8.1-1.5 0-2.3-.1m3.3-37.7c-.4-.1-.7-.1-1.1-.1-1.7 0-3.2.6-4.4 1.8-1.2 1.2-1.8 2.7-1.8 4.4v19c0 3 2.1 5.6 5.1 6.1.4.1.7.1 1.1.1 1.6 0 3.2-.6 4.4-1.8 1.2-1.2 1.8-2.7 1.8-4.4v-19c.1-3-2.1-5.6-5.1-6.1M386.5 38.4c.2-.8.1-1.7-.3-2.4s-1.2-1.3-2.1-1.5h-.6c-1.5 0-2.8 1-3.2 2.5 0 .1-3.5 14.4-6.3 25.2l-.1.2-.1-.2c-2.7-10.8-6.3-25-6.3-25.2-.3-1.3-1.2-2.2-2.5-2.4-.2 0-.4-.1-.6-.1-1.4 0-2.7 1-3.1 2.5 0 .1-3.6 14.4-6.3 25.2l-.1.2-.1-.2c-2.7-10.8-6.3-25-6.3-25.2-.3-1.2-1.3-2.2-2.6-2.4-.4-.1-.9-.1-1.3 0-1.7.4-2.8 2.2-2.4 3.9l9.5 38c.4 1.3 1.3 2.2 2.6 2.4h.5c1.5 0 2.8-1 3.1-2.4 0-.1 3.6-14.4 6.3-25.2l.1-.2.1.2c2.8 10.9 6.3 25.2 6.3 25.2.4 1.3 1.3 2.2 2.6 2.4h.5c1.5 0 2.8-1 3.1-2.5l9.6-38z"/></svg>